<?xml version="1.0" standalone="no"?>
<!DOCTYPE svg PUBLIC "-//W3C//DTD SVG 20010904//EN"
 "http://www.w3.org/TR/2001/REC-SVG-20010904/DTD/svg10.dtd">
<svg version="1.0" xmlns="http://www.w3.org/2000/svg"
 width="32.000000pt" height="32.000000pt" viewBox="0 0 32.000000 32.000000"
 preserveAspectRatio="xMidYMid meet">

<g transform="translate(0.000000,32.000000) scale(0.100000,-0.100000)"
fill="#000000" stroke="none">
<path d="M106 222 c-3 -6 -1 -14 5 -17 15 -10 25 3 12 16 -7 7 -13 7 -17 1z"/>
<path d="M205 219 c-10 -15 3 -25 16 -12 7 7 7 13 1 17 -6 3 -14 1 -17 -5z"/>
<path d="M146 199 c6 -11 44 -12 44 -1 0 4 -11 8 -25 8 -14 1 -22 -2 -19 -7z"/>
<path d="M82 187 c-6 -6 -14 -25 -17 -40 l-7 -28 56 2 c58 2 64 19 10 25 -37
4 -50 19 -34 39 7 8 10 15 7 15 -2 0 -9 -6 -15 -13z"/>
<path d="M223 183 c5 -8 -4 -10 -32 -6 -21 3 -47 0 -57 -6 -15 -8 -9 -9 27 -5
49 7 72 -8 49 -29 -10 -9 -11 -9 -6 1 9 16 1 16 -12 -1 -9 -10 -4 -13 23 -15
32 -2 34 -1 26 20 -5 13 -9 27 -9 31 0 5 -4 12 -8 15 -4 4 -4 2 -1 -5z"/>
</g>
</svg>
